<svg id="Layer_1" data-name="Layer 1" xmlns="http://www.w3.org/2000/svg" viewBox="0 0 1547.07 1186.66"><defs><style>.cls-1{fill:#f5f5f5;}.cls-2{fill:#fd6e00;}.cls-3{fill:none;stroke:#000;stroke-miterlimit:10;}.cls-4{fill:#1abece;}</style></defs><title>OC Connect Logo - Square - No Background</title><path class="cls-1" d="M387.52,1356.92l-20.16,12.53q-26.13-34.68-71.3-34.69-36.09,0-59.95,23.23t-23.86,56.41a80.06,80.06,0,0,0,11,40.64,76.83,76.83,0,0,0,30.11,29.57q19.14,10.53,42.9,10.52,43.54,0,71.12-34.69l20.16,13.26a95.27,95.27,0,0,1-38,33.1q-23.89,11.76-54.4,11.76-46.86,0-77.73-29.78t-30.88-72.47A103.53,103.53,0,0,1,200.9,1363a101.81,101.81,0,0,1,39.69-38.42q25.25-13.8,56.48-13.8a120.77,120.77,0,0,1,37.87,6q18.26,6,31,15.62A85,85,0,0,1,387.52,1356.92Z" transform="translate(-186.46 -383.25)"/><path class="cls-1" d="M709.69,1315.27h25.43v35.41q15.25-20.34,33.78-30.42a83,83,0,0,1,40.32-10.08q22.15,0,39.32,11.26a67.14,67.14,0,0,1,25.34,30.33q8.16,19.08,8.17,59.39V1518H856.62v-99.34q0-34.14-2.83-45.59-4.41-19.61-16.95-29.51t-32.69-9.9q-23.07,0-41.33,15.26a71.5,71.5,0,0,0-24.07,37.77q-3.63,14.71-3.63,53.76V1518H709.69Z" transform="translate(-186.46 -383.25)"/><path class="cls-1" d="M936.53,1315.27H962v35.41q15.25-20.34,33.78-30.42a83,83,0,0,1,40.32-10.08q22.15,0,39.32,11.26a67.14,67.14,0,0,1,25.34,30.33q8.17,19.08,8.17,59.39V1518h-25.43v-99.34q0-34.14-2.83-45.59-4.41-19.61-17-29.51t-32.69-9.9q-23.07,0-41.33,15.26a71.5,71.5,0,0,0-24.07,37.77Q962,1401.36,962,1440.4V1518H936.53Z" transform="translate(-186.46 -383.25)"/><path class="cls-1" d="M1329.74,1447.3l21.43,11.26q-10.55,20.71-24.36,33.42a96.44,96.44,0,0,1-31.09,19.34q-17.27,6.63-39.08,6.63-48.36,0-75.62-31.69t-27.27-71.65a105.62,105.62,0,0,1,23.08-67q29.26-37.42,78.35-37.42,50.53,0,80.71,38.32,21.45,27.07,21.82,67.57H1179.9q.72,34.42,22,56.44t52.56,22a84.41,84.41,0,0,0,29.36-5.24,77.26,77.26,0,0,0,24.28-13.93Q1318.11,1466.67,1329.74,1447.3Zm0-53.21q-5.1-20.34-14.82-32.51T1289.19,1342a78.76,78.76,0,0,0-33.64-7.45q-29.1,0-50,18.71-15.29,13.62-23.09,40.86Z" transform="translate(-186.46 -383.25)"/><path class="cls-1" d="M1596.9,1356.31l-20.16,12.53q-26.13-34.68-71.3-34.68-36.09,0-60,23.22t-23.85,56.42a80,80,0,0,0,11,40.63,76.92,76.92,0,0,0,30.12,29.57q19.13,10.53,42.9,10.52,43.53,0,71.11-34.68l20.16,13.25a95.19,95.19,0,0,1-38.05,33.1q-23.88,11.76-54.4,11.76-46.85,0-77.73-29.78t-30.87-72.47a103.46,103.46,0,0,1,14.44-53.3A101.72,101.72,0,0,1,1450,1324q25.24-13.8,56.48-13.8a120.49,120.49,0,0,1,37.87,6q18.26,6,31,15.61A85.28,85.28,0,0,1,1596.9,1356.31Z" transform="translate(-186.46 -383.25)"/><path class="cls-1" d="M1667.79,1247h25.43v73.37h40.32v22h-40.32V1518h-25.43V1342.33H1633.1v-22h34.69Z" transform="translate(-186.46 -383.25)"/><path class="cls-1" d="M612.64,1335.18a26.7,26.7,0,0,1,19.11,8.13,28.27,28.27,0,0,1,8.17,20V1464.9a28.24,28.24,0,0,1-8.17,19.94,26.7,26.7,0,0,1-19.11,8.13H551.36l-6.56,4.74-3.88,2.81L508.37,1524l-.79-8.39L505.45,1493H477.08a26.7,26.7,0,0,1-19.11-8.13,28.24,28.24,0,0,1-8.17-19.94V1363.25a28.24,28.24,0,0,1,8.17-19.94,26.7,26.7,0,0,1,19.11-8.13H612.64m0-25H477.08c-28.76,0-52.28,23.88-52.28,53.07V1464.9c0,29.19,23.52,53.07,52.28,53.07h5.61l4.87,51.94,68-49.13h0l3.9-2.81h53.19c28.75,0,52.28-23.88,52.28-53.07V1363.25c0-29.19-23.53-53.07-52.28-53.07Z" transform="translate(-186.46 -383.25)"/><path class="cls-2" d="M990.18,999.05l-37.89-42.69a46.93,46.93,0,0,1-7.4-51.25q3.3-6.92,6.27-14.07t5.54-14.38a46.47,46.47,0,0,1,41.41-30.77l56.83-2.94a15.76,15.76,0,0,0,14.79-13.67A394.26,394.26,0,0,0,1070,728a15.74,15.74,0,0,0-14.72-13.72l-56.63-3.23a46.74,46.74,0,0,1-41.49-31.14,297.51,297.51,0,0,0-11.53-28.19,47.2,47.2,0,0,1,7.71-51.49l38-42.35a15.88,15.88,0,0,0,.86-20.17,390.8,390.8,0,0,0-71-71.82,15.65,15.65,0,0,0-20.07.75l-42.45,38.11a46.23,46.23,0,0,1-51,7.44q-6.87-3.32-14-6.3t-14.3-5.57a46.7,46.7,0,0,1-30.6-41.65l-2.92-57.15a15.76,15.76,0,0,0-13.59-14.87,387.21,387.21,0,0,0-100.71-.23,15.76,15.76,0,0,0-13.64,14.8l-3.21,56.95a47,47,0,0,1-31,41.73,295.25,295.25,0,0,0-28,11.59,46.52,46.52,0,0,1-51.19-7.74l-42.12-38.21a15.64,15.64,0,0,0-20.05-.86,390.34,390.34,0,0,0-71.42,71.41,15.88,15.88,0,0,0,.75,20.18L409.57,599A46.93,46.93,0,0,1,417,650.2q-3.29,6.91-6.27,14.08t-5.53,14.38a46.47,46.47,0,0,1-41.42,30.76l-56.82,3A15.74,15.74,0,0,0,292.13,726a393.89,393.89,0,0,0-.22,101.29A15.74,15.74,0,0,0,306.62,841l56.63,3.22a46.75,46.75,0,0,1,41.49,31.14,298.78,298.78,0,0,0,11.53,28.2,47.2,47.2,0,0,1-7.7,51.48l-38,42.36a15.88,15.88,0,0,0-.86,20.17,391.06,391.06,0,0,0,71,71.82,15.66,15.66,0,0,0,20.07-.75l42.45-38.12a46.25,46.25,0,0,1,51-7.43q6.88,3.31,14,6.3t14.3,5.57a46.69,46.69,0,0,1,30.59,41.65L616,1153.8a15.77,15.77,0,0,0,13.58,14.87,387.65,387.65,0,0,0,100.71.23A15.78,15.78,0,0,0,744,1154.1l3.2-57a47,47,0,0,1,31-41.72,293.62,293.62,0,0,0,28-11.6,46.52,46.52,0,0,1,51.2,7.75l42.12,38.21a15.62,15.62,0,0,0,20,.86,390.65,390.65,0,0,0,71.42-71.41A15.86,15.86,0,0,0,990.18,999.05ZM594.86,985.13c-113.93-47.8-167.76-179.44-120.23-294S653.06,522.39,767,570.19s167.76,179.44,120.23,294S708.8,1032.93,594.86,985.13Z" transform="translate(-186.46 -383.25)"/><path class="cls-3" d="M1407.67,783" transform="translate(-186.46 -383.25)"/><path class="cls-3" d="M1408.42,773.5" transform="translate(-186.46 -383.25)"/><path class="cls-4" d="M1577.16,929a222.32,222.32,0,0,1-168,73.49c-123-1.44-221.12-101.57-220.85-225.27.26-123.93,100.24-224.31,223.52-224.31a222.35,222.35,0,0,1,164.36,72.46,9.42,9.42,0,0,0,13.12.79l38.25-33.05a9.58,9.58,0,0,0,1-13.46l-.15-.18a204.94,204.94,0,0,0-20.31-20.31,47.16,47.16,0,0,1-12.78-50.66l18.84-53.81a15.84,15.84,0,0,0-6.92-18.94,388.64,388.64,0,0,0-93-38.79,15.7,15.7,0,0,0-18.24,8.47L1471.35,457a46.39,46.39,0,0,1-44.18,26.59q-7.61-.39-15.33-.4t-15.33.4A46.39,46.39,0,0,1,1352.34,457l-24.59-51.61a15.68,15.68,0,0,0-18.23-8.47,388.47,388.47,0,0,0-93,38.79,15.84,15.84,0,0,0-6.93,18.94l18.85,53.81a47.18,47.18,0,0,1-12.6,50.5,294.53,294.53,0,0,0-21.44,21.55,46.52,46.52,0,0,1-50.21,12.68l-53.5-18.95a15.66,15.66,0,0,0-18.83,7,392.78,392.78,0,0,0-38.57,93.56,15.83,15.83,0,0,0,8.41,18.34L1093,717.81a46.75,46.75,0,0,1,26.44,44.43q-.39,7.66-.39,15.42t.39,15.42A46.76,46.76,0,0,1,1093,837.51l-51.32,24.72a15.82,15.82,0,0,0-8.41,18.33,392.44,392.44,0,0,0,38.57,93.56,15.65,15.65,0,0,0,18.83,7l53.5-19a46.54,46.54,0,0,1,50.21,12.67,294.67,294.67,0,0,0,21.44,21.56,47.18,47.18,0,0,1,12.6,50.5l-18.85,53.8a15.83,15.83,0,0,0,6.93,18.94,388.07,388.07,0,0,0,93,38.79,15.67,15.67,0,0,0,18.23-8.46l24.59-51.61a46.41,46.41,0,0,1,44.17-26.6q7.62.4,15.33.4t15.33-.4a46.42,46.42,0,0,1,44.18,26.6l24.58,51.61a15.69,15.69,0,0,0,18.24,8.46,388.23,388.23,0,0,0,93-38.79,15.84,15.84,0,0,0,6.92-18.94l-18.83-53.76a47.22,47.22,0,0,1,12.59-50.54,296.68,296.68,0,0,0,21.44-21.56l0,0a7.19,7.19,0,0,0-.56-10.25l-41.76-36.2A7.08,7.08,0,0,0,1577.16,929Z" transform="translate(-186.46 -383.25)"/></svg>