<svg id="Layer_1" data-name="Layer 1" xmlns="http://www.w3.org/2000/svg" viewBox="0 0 3840 2160"><defs><style>.cls-1{fill:#333;}.cls-2{fill:#fd6e00;}.cls-3{fill:none;stroke:#000;stroke-miterlimit:10;}.cls-4{fill:#1abece;}.cls-5{fill:#f5f5f5;}</style></defs><title>OC Connect Logo</title><rect class="cls-1" width="3840" height="2160"/><path class="cls-2" d="M1954.15,1123.83l-42.88-48a52.57,52.57,0,0,1-8.37-57.65q3.74-7.77,7.1-15.83t6.26-16.18a52.56,52.56,0,0,1,46.86-34.61l64.29-3.32a17.77,17.77,0,0,0,16.73-15.37,440.81,440.81,0,0,0,.26-113.94,17.79,17.79,0,0,0-16.65-15.44l-64.07-3.63a52.87,52.87,0,0,1-47-35,332.7,332.7,0,0,0-13-31.72,52.84,52.84,0,0,1,8.72-57.92l43-47.65a17.79,17.79,0,0,0,1-22.69A441.08,441.08,0,0,0,1876,524a17.78,17.78,0,0,0-22.7.85l-48,42.88a52.55,52.55,0,0,1-57.65,8.36q-7.77-3.72-15.83-7.09t-16.18-6.26A52.56,52.56,0,0,1,1681,515.9l-3.32-64.3a17.78,17.78,0,0,0-15.37-16.73,441.25,441.25,0,0,0-113.94-.25A17.79,17.79,0,0,0,1533,451.27l-3.63,64.07a52.84,52.84,0,0,1-35,46.94,335.4,335.4,0,0,0-31.72,13.05,52.86,52.86,0,0,1-57.92-8.72l-47.65-43a17.77,17.77,0,0,0-22.69-1,441.08,441.08,0,0,0-80.8,80.34,17.78,17.78,0,0,0,.85,22.7l42.88,48a52.55,52.55,0,0,1,8.36,57.65q-3.72,7.77-7.09,15.83t-6.26,16.18A52.56,52.56,0,0,1,1245.39,798l-64.29,3.31a17.79,17.79,0,0,0-16.74,15.37,441.33,441.33,0,0,0-.25,114,17.77,17.77,0,0,0,16.65,15.43l64.07,3.63a52.88,52.88,0,0,1,47,35,332.52,332.52,0,0,0,13,31.71,52.88,52.88,0,0,1-8.72,57.93l-43,47.65a17.75,17.75,0,0,0-1,22.68,440.46,440.46,0,0,0,80.34,80.8,17.77,17.77,0,0,0,22.7-.84l48-42.88a52.57,52.57,0,0,1,57.65-8.37q7.77,3.73,15.83,7.1t16.18,6.26a52.56,52.56,0,0,1,34.61,46.86l3.31,64.29a17.77,17.77,0,0,0,15.38,16.73,440.81,440.81,0,0,0,113.94.26,17.79,17.79,0,0,0,15.44-16.65l3.62-64.07a52.88,52.88,0,0,1,35-47,332.52,332.52,0,0,0,31.71-13,52.87,52.87,0,0,1,57.93,8.71l47.65,43a17.78,17.78,0,0,0,22.68,1,440.77,440.77,0,0,0,80.8-80.34A17.76,17.76,0,0,0,1954.15,1123.83Zm-447.27-15.66c-128.91-53.78-189.81-201.88-136-330.78s201.87-189.81,330.78-136,189.81,201.87,136,330.78S1635.78,1162,1506.88,1108.17Z" transform="translate(0 0.1)"/><path class="cls-3" d="M2426.5,880.82" transform="translate(0 0.1)"/><path class="cls-3" d="M2427.34,870.08" transform="translate(0 0.1)"/><path class="cls-4" d="M2618.26,1045a252.89,252.89,0,0,1-439.94-170.76c.3-139.42,113.41-252.35,252.9-252.35a252.19,252.19,0,0,1,186,81.52,10.71,10.71,0,0,0,14.85.89l43.27-37.18a10.73,10.73,0,0,0,1.08-15.15c-.06-.06-.11-.13-.17-.2a233.82,233.82,0,0,0-23-22.85,52.85,52.85,0,0,1-14.46-57l21.32-60.53a17.78,17.78,0,0,0-7.84-21.31A441.09,441.09,0,0,0,2547,446.42a17.79,17.79,0,0,0-20.63,9.53L2498.55,514a52.56,52.56,0,0,1-50,29.92q-8.61-.45-17.34-.45t-17.34.45a52.56,52.56,0,0,1-50-29.92L2336.08,456a17.79,17.79,0,0,0-20.63-9.53,441.09,441.09,0,0,0-105.25,43.64,17.78,17.78,0,0,0-7.84,21.31l21.32,60.53a52.87,52.87,0,0,1-14.26,56.81A336.24,336.24,0,0,0,2185.17,653a52.83,52.83,0,0,1-56.81,14.26l-60.53-21.32a17.78,17.78,0,0,0-21.31,7.84A441.26,441.26,0,0,0,2002.88,759a17.78,17.78,0,0,0,9.52,20.63l58.07,27.82a52.55,52.55,0,0,1,29.92,50c-.3,5.74-.45,11.53-.45,17.34s.15,11.6.45,17.35a52.56,52.56,0,0,1-29.92,50L2012.4,969.9a17.79,17.79,0,0,0-9.52,20.63,441.16,441.16,0,0,0,43.64,105.26,17.77,17.77,0,0,0,21.31,7.83l60.53-21.32a52.87,52.87,0,0,1,56.81,14.26,332.22,332.22,0,0,0,24.25,24.25,52.88,52.88,0,0,1,14.26,56.82l-21.32,60.52a17.77,17.77,0,0,0,7.84,21.31,440.68,440.68,0,0,0,105.25,43.64,17.77,17.77,0,0,0,20.63-9.52l27.81-58.06a52.56,52.56,0,0,1,50-29.92q8.61.45,17.34.45t17.34-.45a52.56,52.56,0,0,1,50,29.92l27.81,58.06a17.77,17.77,0,0,0,20.63,9.52,440.68,440.68,0,0,0,105.25-43.64,17.77,17.77,0,0,0,7.84-21.31l-21.3-60.48a52.9,52.9,0,0,1,14.24-56.86,332.22,332.22,0,0,0,24.25-24.25l.06-.06a8.05,8.05,0,0,0-.63-11.53l-47.25-40.72A8,8,0,0,0,2618.26,1045Z" transform="translate(0 0.1)"/><path class="cls-5" d="M1272.28,1527.57l-22.81,14.18q-29.55-39.26-80.66-39.25-40.85,0-67.84,26.27t-27,63.84a90.57,90.57,0,0,0,12.42,46,87.1,87.1,0,0,0,34.07,33.46Q1142.13,1684,1169,1684q49.26,0,80.46-39.25l22.81,15a107.85,107.85,0,0,1-43,37.45q-27,13.3-61.54,13.3-53,0-88-33.7t-34.93-82a117.14,117.14,0,0,1,16.33-60.31A115.17,115.17,0,0,1,1106,1491q28.56-15.62,63.91-15.61a136.48,136.48,0,0,1,42.84,6.78q20.65,6.78,35,17.67A96.24,96.24,0,0,1,1272.28,1527.57Z" transform="translate(0 0.1)"/><path class="cls-5" d="M1636.8,1480.44h28.77v40.07q17.25-23,38.22-34.42a93.9,93.9,0,0,1,45.61-11.4q25.08,0,44.49,12.74a75.89,75.89,0,0,1,28.67,34.31q9.24,21.59,9.24,67.2v120.83H1803V1597.36q0-38.62-3.21-51.57-5-22.2-19.18-33.39t-37-11.2q-26.1,0-46.75,17.26a80.81,80.81,0,0,0-27.24,42.74q-4.11,16.63-4.1,60.82v87.75H1636.8Z" transform="translate(0 0.1)"/><path class="cls-5" d="M1893.45,1480.44h28.77v40.07q17.27-23,38.22-34.42a93.94,93.94,0,0,1,45.62-11.4q25.07,0,44.48,12.74a75.83,75.83,0,0,1,28.67,34.31q9.24,21.59,9.25,67.2v120.83h-28.77V1597.36q0-38.62-3.2-51.57-5-22.2-19.18-33.39t-37-11.2q-26.11,0-46.76,17.26a80.8,80.8,0,0,0-27.23,42.74q-4.11,16.63-4.11,60.82v87.75h-28.77Z" transform="translate(0 0.1)"/><path class="cls-5" d="M2338.33,1629.83l24.25,12.74q-11.94,23.43-27.56,37.81a109.62,109.62,0,0,1-35.17,21.89q-19.54,7.49-44.23,7.5-54.7,0-85.56-35.86t-30.85-81.07q0-42.52,26.12-75.82,33.12-42.33,88.65-42.33,57.17,0,91.31,43.36,24.27,30.62,24.68,76.44H2168.8q.82,39,24.9,63.86t59.45,24.91a95.54,95.54,0,0,0,33.23-5.94,87.12,87.12,0,0,0,27.46-15.76Q2325.17,1651.74,2338.33,1629.83Zm0-60.21q-5.76-23-16.77-36.78t-29.11-22.19a89.13,89.13,0,0,0-38.06-8.43q-32.92,0-56.58,21.17-17.28,15.4-26.13,46.23Z" transform="translate(0 0.1)"/><path class="cls-5" d="M2640.6,1526.88l-22.81,14.18q-29.55-39.24-80.66-39.25-40.85,0-67.83,26.28t-27,63.83a90.63,90.63,0,0,0,12.41,46,87.08,87.08,0,0,0,34.07,33.45q21.66,11.91,48.54,11.91,49.26,0,80.46-39.25l22.81,15a107.71,107.71,0,0,1-43,37.45q-27,13.3-61.54,13.31-53,0-88-33.7t-34.93-82a117.09,117.09,0,0,1,16.33-60.31,115,115,0,0,1,44.9-43.46q28.56-15.61,63.91-15.62a136.48,136.48,0,0,1,42.84,6.78q20.66,6.78,35,17.67A96.09,96.09,0,0,1,2640.6,1526.88Z" transform="translate(0 0.1)"/><path class="cls-5" d="M2720.81,1403.18h28.77v83h45.61v24.86h-45.61v198.71h-28.77V1511.06h-39.25V1486.2h39.25Z" transform="translate(0 0.1)"/><rect class="cls-1" x="1328.01" y="1486.29" width="244.82" height="213.38" rx="66.43"/><path class="cls-5" d="M1506.4,1502.19a50.57,50.57,0,0,1,50.43,50.43v80.52a50.57,50.57,0,0,1-50.43,50.43h-112a50.57,50.57,0,0,1-50.43-50.43v-80.52a50.57,50.57,0,0,1,50.43-50.43h112m0-32h-112a82.53,82.53,0,0,0-82.43,82.43v80.52a82.53,82.53,0,0,0,82.43,82.43h112a82.52,82.52,0,0,0,82.43-82.43v-80.52a82.52,82.52,0,0,0-82.43-82.43Z" transform="translate(0 0.1)"/><polygon class="cls-1" points="1374.07 1629.34 1491.76 1683.13 1386.33 1758.15 1374.07 1629.34"/><path class="cls-5" d="M1392.63,1655.31l67.27,30.75L1399.64,1729l-7-73.64m-37.11-52.15,5.25,55.18,7,73.64,5.25,55.17,45.16-32.13,60.27-42.89,45.16-32.14-50.41-23-67.28-30.75-50.41-23Z" transform="translate(0 0.1)"/><polygon class="cls-1" points="1399.63 1729.05 1459.9 1686.16 1392.62 1655.41 1399.63 1729.05"/><polygon class="cls-1" points="1418.59 1699.69 1478.85 1656.8 1411.58 1626.05 1418.59 1699.69"/><polygon class="cls-1" points="1447.95 1694.67 1508.22 1651.78 1440.94 1621.03 1447.95 1694.67"/><rect class="cls-1" x="1344.01" y="1502.33" width="212.82" height="181.38" rx="50.43"/></svg>