<svg id="Layer_1" data-name="Layer 1" xmlns="http://www.w3.org/2000/svg" viewBox="0 0 1920 1920"><defs><style>.cls-1{fill:#333;}.cls-2{fill:#fd6e00;}.cls-3{fill:none;stroke:#000;stroke-miterlimit:10;}.cls-4{fill:#1abece;}.cls-5{fill:#f5f5f5;}</style></defs><title>OC Connect Logo - Square</title><rect class="cls-1" width="1920" height="1920"/><path class="cls-2" d="M990.18,999.05l-37.89-42.69a46.93,46.93,0,0,1-7.4-51.25q3.3-6.92,6.27-14.07t5.54-14.38a46.47,46.47,0,0,1,41.41-30.77l56.83-2.94a15.76,15.76,0,0,0,14.79-13.67A394.26,394.26,0,0,0,1070,728a15.74,15.74,0,0,0-14.72-13.72l-56.63-3.23a46.74,46.74,0,0,1-41.49-31.14,297.51,297.51,0,0,0-11.53-28.19,47.2,47.2,0,0,1,7.71-51.49l38-42.35a15.88,15.88,0,0,0,.86-20.17,390.8,390.8,0,0,0-71-71.82,15.65,15.65,0,0,0-20.07.75l-42.45,38.11a46.23,46.23,0,0,1-51,7.44q-6.87-3.32-14-6.3t-14.3-5.57a46.7,46.7,0,0,1-30.6-41.65l-2.92-57.15a15.76,15.76,0,0,0-13.59-14.87,387.21,387.21,0,0,0-100.71-.23,15.76,15.76,0,0,0-13.64,14.8l-3.21,56.95a47,47,0,0,1-31,41.73,295.25,295.25,0,0,0-28,11.59,46.52,46.52,0,0,1-51.19-7.74l-42.12-38.21a15.64,15.64,0,0,0-20.05-.86,390.34,390.34,0,0,0-71.42,71.41,15.88,15.88,0,0,0,.75,20.18L409.57,599A46.93,46.93,0,0,1,417,650.2q-3.29,6.91-6.27,14.08t-5.53,14.38a46.47,46.47,0,0,1-41.42,30.76l-56.82,3A15.74,15.74,0,0,0,292.13,726a393.89,393.89,0,0,0-.22,101.29A15.74,15.74,0,0,0,306.62,841l56.63,3.22a46.75,46.75,0,0,1,41.49,31.14,298.78,298.78,0,0,0,11.53,28.2,47.2,47.2,0,0,1-7.7,51.48l-38,42.36a15.88,15.88,0,0,0-.86,20.17,391.06,391.06,0,0,0,71,71.82,15.66,15.66,0,0,0,20.07-.75l42.45-38.12a46.25,46.25,0,0,1,51-7.43q6.88,3.31,14,6.3t14.3,5.57a46.69,46.69,0,0,1,30.59,41.65L616,1153.8a15.77,15.77,0,0,0,13.58,14.87,387.65,387.65,0,0,0,100.71.23A15.78,15.78,0,0,0,744,1154.1l3.2-57a47,47,0,0,1,31-41.72,293.62,293.62,0,0,0,28-11.6,46.52,46.52,0,0,1,51.2,7.75l42.12,38.21a15.62,15.62,0,0,0,20,.86,390.65,390.65,0,0,0,71.42-71.41A15.86,15.86,0,0,0,990.18,999.05ZM594.86,985.13c-113.93-47.8-167.76-179.44-120.23-294S653.06,522.39,767,570.19s167.76,179.44,120.23,294S708.8,1032.93,594.86,985.13Z"/><path class="cls-3" d="M1407.67,783"/><path class="cls-3" d="M1408.42,773.5"/><path class="cls-4" d="M1577.16,929a222.32,222.32,0,0,1-168,73.49c-123-1.44-221.12-101.57-220.85-225.27.26-123.93,100.24-224.31,223.52-224.31a222.35,222.35,0,0,1,164.36,72.46,9.42,9.42,0,0,0,13.12.79l38.25-33.05a9.58,9.58,0,0,0,1-13.46l-.15-.18a204.94,204.94,0,0,0-20.31-20.31,47.16,47.16,0,0,1-12.78-50.66l18.84-53.81a15.84,15.84,0,0,0-6.92-18.94,388.64,388.64,0,0,0-93-38.79,15.7,15.7,0,0,0-18.24,8.47L1471.35,457a46.39,46.39,0,0,1-44.18,26.59q-7.61-.39-15.33-.4t-15.33.4A46.39,46.39,0,0,1,1352.34,457l-24.59-51.61a15.68,15.68,0,0,0-18.23-8.47,388.47,388.47,0,0,0-93,38.79,15.84,15.84,0,0,0-6.93,18.94l18.85,53.81a47.18,47.18,0,0,1-12.6,50.5,294.53,294.53,0,0,0-21.44,21.55,46.52,46.52,0,0,1-50.21,12.68l-53.5-18.95a15.66,15.66,0,0,0-18.83,7,392.78,392.78,0,0,0-38.57,93.56,15.83,15.83,0,0,0,8.41,18.34L1093,717.81a46.75,46.75,0,0,1,26.44,44.43q-.39,7.66-.39,15.42t.39,15.42A46.76,46.76,0,0,1,1093,837.51l-51.32,24.72a15.82,15.82,0,0,0-8.41,18.33,392.44,392.44,0,0,0,38.57,93.56,15.65,15.65,0,0,0,18.83,7l53.5-19a46.54,46.54,0,0,1,50.21,12.67,294.67,294.67,0,0,0,21.44,21.56,47.18,47.18,0,0,1,12.6,50.5l-18.85,53.8a15.83,15.83,0,0,0,6.93,18.94,388.07,388.07,0,0,0,93,38.79,15.67,15.67,0,0,0,18.23-8.46l24.59-51.61a46.41,46.41,0,0,1,44.17-26.6q7.62.4,15.33.4t15.33-.4a46.42,46.42,0,0,1,44.18,26.6l24.58,51.61a15.69,15.69,0,0,0,18.24,8.46,388.23,388.23,0,0,0,93-38.79,15.84,15.84,0,0,0,6.92-18.94l-18.83-53.76a47.22,47.22,0,0,1,12.59-50.54,296.68,296.68,0,0,0,21.44-21.56l0,0a7.19,7.19,0,0,0-.56-10.25l-41.76-36.2A7.08,7.08,0,0,0,1577.16,929Z"/><path class="cls-5" d="M387.51,1357.93l-20.16,12.6q-26.13-34.87-71.29-34.88-36.1,0-60,23.35t-23.85,56.74a80.86,80.86,0,0,0,11,40.87,77.26,77.26,0,0,0,30.11,29.74q19.14,10.58,42.91,10.58,43.53,0,71.11-34.89l20.16,13.34a95.32,95.32,0,0,1-38.05,33.28q-23.88,11.83-54.4,11.83-46.85,0-77.73-30t-30.87-72.88a104.6,104.6,0,0,1,14.43-53.61,102,102,0,0,1,39.69-38.63q25.25-13.87,56.48-13.88a120.22,120.22,0,0,1,37.87,6q18.26,6,31,15.71A85.47,85.47,0,0,1,387.51,1357.93Z"/><path class="cls-5" d="M709.69,1316h25.43v35.62q15.25-20.46,33.78-30.6a82.61,82.61,0,0,1,40.32-10.13q22.15,0,39.32,11.32a67.34,67.34,0,0,1,25.33,30.5q8.18,19.18,8.18,59.73v107.4H856.62V1420q0-34.34-2.83-45.85-4.41-19.72-16.95-29.68t-32.7-10q-23.07,0-41.32,15.34a71.94,71.94,0,0,0-24.07,38q-3.63,14.81-3.63,54.07v78H709.69Z"/><path class="cls-5" d="M936.53,1316H962v35.62q15.25-20.46,33.78-30.6a82.61,82.61,0,0,1,40.32-10.13q22.15,0,39.32,11.32a67.42,67.42,0,0,1,25.34,30.5q8.17,19.18,8.17,59.73v107.4h-25.43V1420q0-34.34-2.83-45.85-4.41-19.72-17-29.68t-32.69-10q-23.07,0-41.33,15.34a72,72,0,0,0-24.07,38q-3.63,14.81-3.63,54.07v78H936.53Z"/><path class="cls-5" d="M1329.74,1448.83l21.43,11.32q-10.55,20.83-24.36,33.61a96.68,96.68,0,0,1-31.08,19.46q-17.28,6.66-39.09,6.66-48.35,0-75.62-31.87T1153.75,1416a106.66,106.66,0,0,1,23.09-67.4q29.27-37.62,78.35-37.62,50.54,0,80.71,38.54,21.45,27.21,21.81,67.94h-177.8q.72,34.63,22,56.77t52.55,22.14a84,84,0,0,0,29.37-5.28,76.89,76.89,0,0,0,24.27-14Q1318.11,1468.3,1329.74,1448.83Zm0-53.52q-5.09-20.44-14.82-32.69t-25.73-19.73a78.47,78.47,0,0,0-33.64-7.49q-29.1,0-50,18.81-15.27,13.71-23.09,41.1Z"/><path class="cls-5" d="M1596.91,1357.32l-20.16,12.6q-26.13-34.87-71.3-34.88-36.1,0-60,23.35t-23.86,56.74a80.87,80.87,0,0,0,11,40.87,77.13,77.13,0,0,0,30.11,29.74q19.14,10.58,42.9,10.58,43.55,0,71.12-34.89l20.16,13.34a95.38,95.38,0,0,1-38.05,33.28q-23.89,11.84-54.4,11.83-46.86,0-77.73-30t-30.88-72.88a104.51,104.51,0,0,1,14.44-53.61,102,102,0,0,1,39.68-38.63q25.24-13.89,56.49-13.88a119.93,119.93,0,0,1,37.87,6q18.26,6,31,15.71A85.5,85.5,0,0,1,1596.91,1357.32Z"/><path class="cls-5" d="M1667.8,1247.36h25.42v73.79h40.32v22.11h-40.32v176.62H1667.8V1343.26h-34.69v-22.11h34.69Z"/><rect class="cls-1" x="434.91" y="1319.37" width="220.11" height="193.23" rx="66.43"/><path class="cls-5" d="M588.58,1335.37A50.57,50.57,0,0,1,639,1385.8v60.37a50.57,50.57,0,0,1-50.43,50.43H501.34a50.57,50.57,0,0,1-50.43-50.43V1385.8a50.57,50.57,0,0,1,50.43-50.43h87.24m0-32H501.34a82.53,82.53,0,0,0-82.43,82.43v60.37a82.53,82.53,0,0,0,82.43,82.43h87.24A82.52,82.52,0,0,0,671,1446.17V1385.8a82.52,82.52,0,0,0-82.43-82.43Z"/><polygon class="cls-1" points="475.33 1445.34 585.07 1495.78 486.77 1566.13 475.33 1445.34"/><path class="cls-5" d="M493.88,1471.48l59.46,27.33-53.27,38.12-6.19-65.45m-37.09-52.27,5.23,55.28,6.2,65.46,5.24,55.38L518.7,1563,572,1524.83l44.82-32.08-50.08-23-59.47-27.33-50.45-23.19Z"/><polygon class="cls-1" points="500.07 1536.93 553.34 1498.81 493.88 1471.48 500.07 1536.93"/><polygon class="cls-1" points="516.82 1510.84 570.09 1472.71 510.63 1445.38 516.82 1510.84"/><polygon class="cls-1" points="542.78 1506.37 596.04 1468.25 536.58 1440.91 542.78 1506.37"/><rect class="cls-1" x="450.91" y="1335.4" width="188.11" height="161.23" rx="50.43"/></svg>